HIERARCHY
ROOT Hips
{
	OFFSET 52.457901 -12.914115 95.611397
	CHANNELS 6 Xposition Yposition Zposition Xrotation Yrotation Zrotation
	JOINT spine
	{
		OFFSET 0.000000 -0.458069 7.965683
		CHANNELS 3 Xrotation Yrotation Zrotation
		JOINT spine1
		{
			OFFSET 0.000000 -0.000001 10.243103
			CHANNELS 3 Xrotation Yrotation Zrotation
			JOINT spine2
			{
				OFFSET 0.000000 -0.000002 9.814751
				CHANNELS 3 Xrotation Yrotation Zrotation
				JOINT Neck
				{
					OFFSET 0.000000 -1.201384 25.198593
					CHANNELS 3 Xrotation Yrotation Zrotation
					JOINT Head
					{
						OFFSET 0.000000 -0.000002 7.613144
						CHANNELS 3 Xrotation Yrotation Zrotation
						End Site
						{
							OFFSET 0.000000 6.077328 18.428101
						}
					}
				}
				JOINT RightShoulder
				{
					OFFSET -4.132698 0.575449 10.599197
					CHANNELS 3 Xrotation Yrotation Zrotation
					JOINT RightArm
					{
						OFFSET 0.000000 -0.000002 13.901794
						CHANNELS 3 Xrotation Yrotation Zrotation
						JOINT RightArmRoll
						{
							OFFSET 0.000000 -0.000002 7.017883
							CHANNELS 3 Xrotation Yrotation Zrotation
							JOINT RightForeArm
							{
								OFFSET 0.000000 -0.000003 20.440598
								CHANNELS 3 Xrotation Yrotation Zrotation
								JOINT RightForeArmRoll
								{
									OFFSET 0.000000 -0.000001 7.875153
									CHANNELS 3 Xrotation Yrotation Zrotation
									JOINT RightHand
									{
										OFFSET 0.000000 -0.000003 15.803696
										CHANNELS 3 Xrotation Yrotation Zrotation
										End Site
										{
											OFFSET 0.000000 0.000000 0.100006
										}
									}
								}
							}
						}
					}
				}
				JOINT LeftShoulder
				{
					OFFSET 4.132698 0.575449 10.599197
					CHANNELS 3 Xrotation Yrotation Zrotation
					JOINT LeftArm
					{
						OFFSET 0.000000 -0.000002 13.901794
						CHANNELS 3 Xrotation Yrotation Zrotation
						JOINT LeftArmRoll
						{
							OFFSET 0.000000 -0.000002 7.017883
							CHANNELS 3 Xrotation Yrotation Zrotation
							JOINT LeftForeArm
							{
								OFFSET 0.000000 -0.000003 20.440598
								CHANNELS 3 Xrotation Yrotation Zrotation
								JOINT LeftForeArmRoll
								{
									OFFSET 0.000000 -0.000001 7.875153
									CHANNELS 3 Xrotation Yrotation Zrotation
									JOINT LeftHand
									{
										OFFSET 0.000000 -0.000003 15.803696
										CHANNELS 3 Xrotation Yrotation Zrotation
										End Site
										{
											OFFSET 0.000000 0.000000 0.100006
										}
									}
								}
							}
						}
					}
				}
			}
		}
	}
	JOINT RightUpLeg
	{
		OFFSET -7.060471 1.086090 -1.294701
		CHANNELS 3 Xrotation Yrotation Zrotation
		JOINT RightUpLegRoll
		{
			OFFSET 0.000000 -0.000003 18.530800
			CHANNELS 3 Xrotation Yrotation Zrotation
			JOINT RightLeg
			{
				OFFSET 0.000000 0.000004 -22.947601
				CHANNELS 3 Xrotation Yrotation Zrotation
				JOINT RightLegRoll
				{
					OFFSET 0.000000 -0.000004 23.022598
					CHANNELS 3 Xrotation Yrotation Zrotation
					JOINT RightFoot
					{
						OFFSET 0.000000 -0.000004 19.162498
						CHANNELS 3 Xrotation Yrotation Zrotation
						JOINT RightToeBase
						{
							OFFSET 0.000000 -0.000002 16.018799
							CHANNELS 3 Xrotation Yrotation Zrotation
							End Site
							{
								OFFSET 0.006790 0.894204 7.757812
							}
						}
					}
				}
			}
		}
	}
	JOINT LeftUpLeg
	{
		OFFSET 7.060471 1.086090 -1.294701
		CHANNELS 3 Xrotation Yrotation Zrotation
		JOINT LeftUpLegRoll
		{
			OFFSET 0.000000 -0.000003 18.530899
			CHANNELS 3 Xrotation Yrotation Zrotation
			JOINT LeftLeg
			{
				OFFSET 0.000000 -0.000004 22.947495
				CHANNELS 3 Xrotation Yrotation Zrotation
				JOINT LeftLegRoll
				{
					OFFSET 0.000000 -0.000004 23.235504
					CHANNELS 3 Xrotation Yrotation Zrotation
					JOINT LeftFoot
					{
						OFFSET 0.000000 -0.000003 18.949600
						CHANNELS 3 Xrotation Yrotation Zrotation
						JOINT LeftToeBase
						{
							OFFSET 0.000000 -0.000003 16.018799
							CHANNELS 3 Xrotation Yrotation Zrotation
							End Site
							{
								OFFSET -0.030430 0.894206 7.757812
							}
						}
					}
				}
			}
		}
	}
}
MOTION
Frames: 5
Frame Time: 0.041667
52.937702 -10.689116 95.686691 0.342006 -0.669998 4.144999 -2.669390 0.377823 -0.059090 -1.335657 0.757675 -0.104280 0.309476 0.756383 -0.113354 32.727975 -1.750160 -2.146709 -2.974889 -2.587154 -2.174904 -17.503893 -17.399786 -20.198037 -138.081468 -187.605106 -83.698313 -0.000004 -0.000009 0.000001 30.344922 16.150578 2.420060 -0.000001 0.000006 -3.006680 -5.000185 -7.999908 0.000001 -14.173020 13.188576 14.689435 -137.399692 183.650222 85.743306 0.000002 0.000013 0.000000 30.767758 -16.857448 -2.760837 0.000000 -0.000016 3.007001 -5.000175 7.999997 -0.000016 -0.332111 -173.418107 -0.723580 -179.999991 0.000005 -1.093003 174.643238 -2.759913 -0.610681 0.000002 0.000004 0.067428 69.371356 6.909099 2.058156 25.615554 -7.355619 0.231380 -1.118004 175.285890 1.553655 -0.000020 -0.000004 -1.072690 -4.276301 1.836536 0.198670 0.000002 -0.000003 -0.030597 69.042790 -6.881854 -2.153198 25.456955 7.355613 -0.000000 
52.939800 -10.690714 95.689392 0.318642 -0.655576 4.142905 -2.666117 0.374481 -0.057440 -1.329134 0.750931 -0.101125 0.315999 0.749677 -0.110119 32.738845 -1.743249 -2.149180 -2.973722 -2.576191 -2.177442 -17.471829 -17.514012 -20.149791 -138.083790 -187.285932 -83.915431 -0.000004 -0.000008 0.000001 30.339308 16.012308 2.399871 -0.000002 0.000006 -3.006681 -5.000185 -7.999909 0.000000 -14.141776 13.394840 14.651391 -137.422382 183.442270 85.930460 0.000000 0.000015 0.000001 30.660658 -16.752029 -2.749665 0.000000 -0.000017 3.007000 -5.000174 8.000000 -0.000016 -0.295117 -173.437095 -0.730090 -179.999991 0.000005 -1.094000 174.669466 -2.756045 -0.610057 0.000002 0.000004 0.066627 69.357634 6.909525 2.057590 25.616556 -7.355613 0.232525 -1.097775 175.265878 1.537275 -0.000020 -0.000004 -1.072990 -4.288082 1.838732 0.200498 0.000002 -0.000003 -0.030572 69.043589 -6.878384 -2.162206 25.456953 7.355613 -0.000000 
52.912304 -10.719816 95.686989 0.295962 -0.641845 4.141215 -2.662869 0.371459 -0.055985 -1.322632 0.744831 -0.098345 0.322493 0.743610 -0.107266 32.746266 -1.738863 -2.151149 -2.969799 -2.564835 -2.179737 -17.445360 -17.637589 -20.110507 -138.083011 -186.980540 -84.122884 -0.000005 -0.000007 0.000001 30.321341 15.880939 2.379967 -0.000000 0.000007 -3.006680 -5.000184 -7.999909 0.000000 -14.113793 13.593298 14.618275 -137.437244 183.230261 86.108195 0.000002 0.000012 -0.000000 30.554797 -16.649628 -2.738571 0.000001 -0.000016 3.007000 -5.000176 7.999999 -0.000016 -0.259471 -173.455072 -0.736374 -179.999991 0.000005 -1.094000 174.694615 -2.752172 -0.608480 0.000003 0.000004 0.065885 69.344336 6.909929 2.057192 25.617570 -7.355615 0.233685 -1.078501 175.246835 1.521510 -0.000020 -0.000004 -1.073280 -4.299384 1.840988 0.202205 0.000002 -0.000003 -0.030546 69.044347 -6.875087 -2.170747 25.456959 7.355613 -0.000001 
52.916702 -10.711714 95.687592 0.274255 -0.628974 4.139981 -2.659666 0.368819 -0.054767 -1.316240 0.739507 -0.096025 0.328890 0.738314 -0.104882 32.749439 -1.737346 -2.152538 -2.962515 -2.553128 -2.181705 -17.425440 -17.772265 -20.081634 -138.078257 -186.692552 -84.319068 -0.000003 -0.000009 0.000001 30.284372 15.760631 2.360625 -0.000001 0.000006 -3.006680 -5.000183 -7.999909 -0.000000 -14.090116 13.782607 14.591185 -137.442954 183.014167 86.275193 0.000001 0.000015 0.000000 30.450595 -16.550993 -2.727420 0.000001 -0.000016 3.007000 -5.000176 8.000000 -0.000016 -0.225593 -173.471055 -0.742345 -179.999991 0.000004 -1.094997 174.718493 -2.749300 -0.607057 0.000002 0.000004 0.065216 69.331591 6.910392 2.056673 25.618588 -7.355618 0.234855 -1.060478 175.227820 1.506557 -0.000020 -0.000004 -1.073560 -4.310044 1.843336 0.203759 0.000002 -0.000003 -0.030521 69.045064 -6.872001 -2.178729 25.456959 7.355614 -0.000000 
52.916103 -10.725817 95.678993 0.253812 -0.617128 4.139254 -2.656543 0.366630 -0.053828 -1.310018 0.735092 -0.094248 0.335114 0.733920 -0.103053 32.747677 -1.739030 -2.153222 -2.951274 -2.541100 -2.183283 -17.412988 -17.919584 -20.064577 -138.068094 -186.425615 -84.499474 -0.000001 -0.000008 0.000001 30.221869 15.655302 2.341753 -0.000001 0.000007 -3.006681 -5.000184 -7.999910 0.000001 -14.071272 13.961556 14.571116 -137.437968 182.794030 86.429801 0.000000 0.000013 -0.000001 30.348351 -16.456695 -2.716319 -0.000001 -0.000014 3.007000 -5.000176 7.999999 -0.000016 -0.193908 -173.487037 -0.747897 -179.999991 0.000005 -1.095994 174.740787 -2.745413 -0.606619 0.000002 0.000004 0.064629 69.319364 6.910838 2.056218 25.619592 -7.355617 0.236013 -1.044013 175.211783 1.492518 -0.000020 -0.000004 -1.073840 -4.319896 1.845805 0.205126 0.000002 -0.000003 -0.030495 69.045651 -6.869188 -2.186071 25.456955 7.355615 -0.000001 
